<svg viewBox="0 0 21 19" fill="none" xmlns="http://www.w3.org/2000/svg"><path d="M9.626.54a.977.977 0 011.748 0l2.335 4.703a.974.974 0 00.734.53l5.222.754a.966.966 0 01.54 1.651l-3.78 3.661a.965.965 0 00-.28.857l.893 5.17c.136.79-.699 1.394-1.414 1.02l-4.67-2.44a.98.98 0 00-.907 0l-4.671 2.44c-.715.374-1.55-.23-1.414-1.02l.892-5.17a.964.964 0 00-.28-.857L.795 8.18a.967.967 0 01.54-1.652l5.222-.754a.974.974 0 00.734-.53L9.626.54z" fill="#BEC1C4"/><path d="M9.85.65a.727.727 0 011.3 0l2.335 4.704c.179.36.524.609.922.666l5.222.754c.596.086.83.81.402 1.225l-3.78 3.66c-.288.28-.42.684-.352 1.08l.892 5.17c.101.583-.517 1.035-1.051.756l-4.67-2.44a1.23 1.23 0 00-1.14 0l-4.67 2.44a.723.723 0 01-1.051-.757L5.1 12.74c.068-.396-.064-.8-.353-1.08L.97 8a.717.717 0 01.402-1.225l5.222-.754c.398-.057.743-.306.922-.666L9.85.651z" stroke="#87898C" stroke-opacity=".5" stroke-width=".5"/></svg>